<svg width="18" height="18" viewBox="0 0 18 18" fill="none" xmlns="http://www.w3.org/2000/svg">
    <path d="M15.75 13.5L14.9999 14.3205C14.6021 14.7556 14.0626 15 13.5001 15C12.9376 15 12.3981 14.7556 12.0003 14.3205C11.6019 13.8863 11.0625 13.6425 10.5002 13.6425C9.93782 13.6425 9.39838 13.8863 9.00001 14.3205M2.25003 15H3.50594C3.87282 15 4.05627 15 4.2289 14.9585C4.38195 14.9218 4.52827 14.8612 4.66248 14.7789C4.81385 14.6862 4.94357 14.5565 5.20299 14.297L14.6251 4.87499C15.2464 4.25367 15.2464 3.24631 14.6251 2.62499C14.0037 2.00367 12.9964 2.00367 12.375 2.62499L2.95298 12.047C2.69355 12.3065 2.56383 12.4362 2.47107 12.5876C2.38883 12.7218 2.32822 12.8681 2.29148 13.0211C2.25003 13.1938 2.25003 13.3772 2.25003 13.7441V15Z" stroke="currentColor" stroke-width="1.25" stroke-linecap="round" stroke-linejoin="round"/>
</svg>
