<svg width="308" height="68" viewBox="0 0 308 68" xmlns="http://www.w3.org/2000/svg">
    <circle fill="#00BCB0" cx="34" cy="34" r="34"/>
    <path fill="#FFF" d="M51.93 16.178 37.944 31.097l18.648 19.58h-7.46l-14.918-15.85-14.92 15.85h-7.459l32.636-34.5z"/>
    <path fill="#FFF" d="M28.62 16.178h7.459L22.092 31.097l17.716 19.58h-7.46l-17.715-19.58z"/>
    <path d="M82.698 46.798V38.05l7.878 8.747h5.455l-9.08-9.616 8.507-8.895h-5.252l-7.508 7.989V20.279H78.5v26.519h4.198zm22.614.37a7.915 7.915 0 0 0 3.504-.805c1.104-.536 1.902-1.223 2.395-2.062v2.497h4.217V28.287h-4.217v2.496c-.493-.838-1.294-1.529-2.404-2.071a7.86 7.86 0 0 0-3.495-.814c-2.49 0-4.595.931-6.315 2.793-1.72 1.861-2.58 4.136-2.58 6.824 0 2.712.86 4.999 2.58 6.86 1.72 1.862 3.825 2.793 6.315 2.793zm.87-4.013c-1.591 0-2.923-.54-3.995-1.618-1.073-1.079-1.61-2.42-1.61-4.022 0-1.603.537-2.938 1.61-4.004 1.072-1.067 2.404-1.6 3.994-1.6 1.048 0 2.034.262 2.959.786.925.524 1.615 1.2 2.071 2.025V40.4c-.456.802-1.15 1.461-2.08 1.98a5.978 5.978 0 0 1-2.95.776zm17.9 3.643V20.279h-4.198v26.519h4.198zm8.655 0V38.05l7.878 8.747h5.455l-9.08-9.616 8.507-8.895h-5.252l-7.508 7.989V20.279h-4.198v26.519h4.198zm23.578.37a7.245 7.245 0 0 0 3.301-.777c1.03-.518 1.816-1.214 2.358-2.09v2.497h4.235V28.287h-4.235v12.075c-.468.79-1.125 1.421-1.97 1.896a5.34 5.34 0 0 1-2.653.712c-1.332 0-2.398-.432-3.2-1.295-.8-.863-1.201-2.034-1.201-3.513v-9.875h-4.198v10.522c0 2.577.678 4.614 2.034 6.112 1.356 1.498 3.2 2.247 5.53 2.247zm18.512-.37V20.279h-4.198v26.519h4.198zm12.408.37a7.915 7.915 0 0 0 3.505-.805c1.103-.536 1.901-1.223 2.395-2.062v2.497h4.216V28.287h-4.216v2.496c-.494-.838-1.295-1.529-2.404-2.071a7.86 7.86 0 0 0-3.496-.814c-2.49 0-4.595.931-6.315 2.793-1.72 1.861-2.58 4.136-2.58 6.824 0 2.712.86 4.999 2.58 6.86 1.72 1.862 3.825 2.793 6.315 2.793zm.87-4.013c-1.59 0-2.922-.54-3.995-1.618-1.072-1.079-1.609-2.42-1.609-4.022 0-1.603.537-2.938 1.61-4.004 1.072-1.067 2.403-1.6 3.994-1.6 1.047 0 2.034.262 2.958.786.925.524 1.615 1.2 2.072 2.025V40.4c-.457.802-1.15 1.461-2.08 1.98a5.978 5.978 0 0 1-2.95.776zm22.413 3.902c.912 0 1.67-.148 2.275-.444l-.24-3.717a4.95 4.95 0 0 1-1.425.222c-.961 0-1.766-.311-2.413-.934-.647-.623-.971-1.458-.971-2.506V32.3h4.864v-4.013h-4.864v-4.975h-4.198v4.975h-3.55V32.3h3.55v7.563c0 2.244.641 4.004 1.923 5.28 1.283 1.276 2.965 1.914 5.049 1.914zm14.276.11c2.713 0 4.993-.918 6.843-2.755 1.849-1.837 2.774-4.124 2.774-6.86 0-2.737-.925-5.03-2.774-6.88-1.85-1.85-4.13-2.774-6.843-2.774-2.712 0-4.987.925-6.823 2.774-1.837 1.85-2.756 4.143-2.756 6.88 0 2.736.919 5.023 2.756 6.86 1.836 1.837 4.111 2.756 6.823 2.756zm0-4.05c-1.528 0-2.814-.532-3.855-1.599-1.042-1.066-1.563-2.388-1.563-3.966 0-1.59.518-2.922 1.553-3.995 1.036-1.073 2.324-1.609 3.865-1.609 1.541 0 2.836.536 3.884 1.61 1.048 1.072 1.572 2.403 1.572 3.994 0 1.565-.524 2.884-1.572 3.957s-2.343 1.609-3.884 1.609zm17.328 3.68V34.982c.469-.974 1.128-1.748 1.979-2.32.85-.574 1.658-.86 2.422-.86.753 0 1.486.123 2.201.37l.259-3.977c-.567-.197-1.276-.296-2.127-.296-.875 0-1.769.271-2.681.814-.912.542-1.597 1.245-2.053 2.108v-2.533h-4.198v18.51h4.198zm12.002-21.71a2.63 2.63 0 0 0 1.914-.795c.536-.53.805-1.171.805-1.923 0-.728-.269-1.356-.805-1.886a2.63 2.63 0 0 0-1.914-.796c-.74 0-1.375.265-1.905.796-.53.53-.795 1.158-.795 1.886 0 .752.265 1.393.795 1.923s1.165.795 1.905.795zm2.071 21.71v-18.51h-4.198v18.51h4.198zm7.175.37c.827 0 1.52-.277 2.08-.831.562-.555.842-1.233.842-2.035 0-.813-.28-1.498-.841-2.052-.561-.555-1.254-.832-2.08-.832-.814 0-1.502.277-2.062.832-.561.554-.842 1.239-.842 2.052 0 .802.28 1.48.842 2.035.56.554 1.248.832 2.061.832zm11.392-.37V34.686c.444-.789 1.091-1.418 1.942-1.886a5.48 5.48 0 0 1 2.681-.703c1.332 0 2.392.429 3.181 1.285.79.857 1.184 2.032 1.184 3.523v9.894h4.234v-10.56c0-2.551-.68-4.58-2.043-6.084-1.362-1.504-3.208-2.256-5.539-2.256a7.171 7.171 0 0 0-3.3.777c-1.018.518-1.797 1.22-2.34 2.108V20.28h-4.198v26.519h4.198zm21.877 0V34.982c.469-.974 1.128-1.748 1.979-2.32.85-.574 1.658-.86 2.422-.86.752 0 1.486.123 2.201.37l.259-3.977c-.567-.197-1.276-.296-2.127-.296-.875 0-1.769.271-2.681.814-.912.542-1.597 1.245-2.053 2.108v-2.533h-4.198v18.51h4.198z" fill="#FFF" fill-rule="nonzero"/>
</svg>
